<?xml version="1.0" encoding="utf-8"?>
<!-- Generator: Adobe Illustrator 15.1.0, SVG Export Plug-In . SVG Version: 6.00 Build 0)  -->
<!DOCTYPE svg PUBLIC "-//W3C//DTD SVG 1.1//EN" "http://www.w3.org/Graphics/SVG/1.1/DTD/svg11.dtd">
<svg version="1.1" xmlns="http://www.w3.org/2000/svg" xmlns:xlink="http://www.w3.org/1999/xlink" x="0px" y="0px"
	 width="263.686px" height="103.093px" viewBox="0 0 263.686 100" enable-background="new 0 0 263.686 103.093"
	 xml:space="preserve">
<g id="Hilfslinien" display="none">
</g>
<g id="Logo">
	<g>
		<polygon fill="#52AE32" points="172.614,21.815 139.866,81.343 151.505,81.343 184.218,21.815 		"/>
		<polygon fill="#005297" points="153.488,21.815 120.743,81.343 132.382,81.343 165.098,21.815 		"/>
		<g>
			<polygon points="82.866,30.926 82.866,72.167 93.512,72.167 107.24,48.371 107.24,72.167 118.227,72.167 141.043,30.926 
				130.843,30.926 118.079,53.31 118.079,30.926 106.469,30.926 93.512,52.862 93.512,30.926 			"/>
			<polygon points="164.136,72.167 174.46,72.167 187.103,50.103 187.103,72.167 198.198,72.167 211.667,50.167 211.667,72.167 
				222.444,72.167 222.444,30.926 211.667,30.926 198.198,54.72 198.198,30.926 186.845,30.926 			"/>
			<g>
				<path d="M52.494,58.057c0.075,3.892,3.284,7.026,7.228,7.026c3.979,0,7.203-1.998,7.203-4.462c0-1.426-0.8-3.143-4.072-3.977
					c0,0-2.403-0.739-3.943-1.193c-2.221-0.65-3.525-0.834-5.712-1.596c-1.447-0.504-2.219-0.879-3.655-1.443
					c-4.439-2.363-6.918-6.211-6.64-10.583c-0.383-7.183,7.596-12.635,16.968-12.635c9.368,0,16.965,5.655,16.965,12.635v1.153
					H65.768l0.034-0.799c0-2.321-2.658-4.201-5.933-4.201l-0.724,0.032c-2.874,0-5.213,1.299-5.213,2.904v0.463
					c0,1.167,1.025,2.234,2.569,2.852c1.767,0.707,2.661,0.932,4.457,1.447c2.017,0.571,3.176,0.84,5.165,1.505
					c2.119,0.709,5.356,2.049,5.356,2.049c3.621,1.576,6.509,5.313,6.509,8.854c0.515,9.333-5.965,15.04-18.249,15.04
					c-12.22,0-18.249-5.562-18.249-15.075L52.494,58.057z"/>
			</g>
		</g>
	</g>
</g>
</svg>